<svg xmlns="http://www.w3.org/2000/svg" xmlns:xlink="http://www.w3.org/1999/xlink" width="120" height="36" viewBox="0 0 120 36">
    <defs>
        <path id="zns29pv00a" d="M0 0H120V36H0z"/>
    </defs>
    <g fill="none" fill-rule="evenodd">
        <g>
            <g transform="translate(-19 -14) translate(19 14)">
                <mask id="8mefaj5ybb" fill="#fff">
                    <use xlink:href="#zns29pv00a"/>
                </mask>
                <g mask="url(#8mefaj5ybb)">
                    <g>
                        <path fill="#0C0D0F" fill-rule="nonzero" d="M-9.12 61.727c-2.235.794-4.59 1.205-6.963 1.214-2.619 0-4.464-.593-5.565-1.776-1.1-1.184-1.636-2.872-1.636-5.092v-8.762h5.058v8.791c0 1.776.774 2.664 2.292 2.664.598.01 1.193-.09 1.755-.295V47.31h5.059v14.416m3.54 6.394l-.743-4.262c.907-.117 1.784-.398 2.589-.83.922-.473 1.577-1.006 1.934-1.598-1.696-2.19-2.946-4.381-3.78-6.542-.832-2.16-1.308-4.677-1.457-7.548h5.118c0 3.877.923 7.311 2.738 10.301.616-1.411 1.056-2.892 1.309-4.41.238-1.48.357-3.464.357-5.92h5.058c-.18 4.748-1.496 9.386-3.839 13.527-2.47 4.352-5.564 6.78-9.284 7.283m22.05-21.136c1.726 0 3.244.295 4.583.917l-.923 3.938c-1.012-.448-2.105-.69-3.213-.71-.953 0-1.697.325-2.232.976-.536.651-.804 1.569-.804 2.723 0 2.635 1.071 3.967 3.214 3.967 1.09-.012 2.165-.254 3.154-.71l.774 4.026c-1.16.562-2.619.828-4.374.828-2.47 0-4.405-.71-5.803-2.16-1.398-1.451-2.083-3.376-2.083-5.803s.684-4.38 2.053-5.831c1.37-1.45 3.273-2.19 5.684-2.19l-.03.029m13.36 3.937c-1.309 0-2.112.8-2.38 2.368h4.196v-.238c0-.68-.179-1.213-.506-1.598-.327-.378-.81-.585-1.31-.563v.031zm5.893 10.923c-1.488.681-3.244 1.007-5.297 1.007-2.44 0-4.404-.74-5.922-2.191-1.518-1.45-2.262-3.375-2.262-5.772 0-2.397.714-4.322 2.143-5.772 1.428-1.45 3.274-2.192 5.506-2.192 1.934 0 3.54.621 4.79 1.894s1.875 2.93 1.875 4.973c.007.83-.033 1.66-.119 2.487H27.66c.387 1.628 1.517 2.427 3.392 2.427 1.359-.016 2.701-.287 3.959-.8l.714 3.938m8.331-3.285c.411.142.844.212 1.28.207 1.1 0 1.904-.326 2.41-.948.506-.621.774-1.598.774-2.9 0-2.576-1.101-3.849-3.333-3.849-.38.026-.757.075-1.13.148v7.341zm9.611-3.79c0 2.428-.684 4.381-2.082 5.862-1.4 1.48-3.214 2.22-5.476 2.22-.692.016-1.383-.064-2.053-.237v5.506h-5.06V48.17c2.077-.808 4.288-1.22 6.518-1.214 2.5 0 4.493.681 5.98 2.073 1.489 1.39 2.233 3.315 2.233 5.772l-.06-.03m12.468-2.812c-1.874-.563-3.303-.858-4.285-.858-1.041 0-1.547.207-1.547.65-.006.266.146.51.387.623.268.147.833.325 1.696.562 1.845.474 3.154 1.066 3.928 1.806s1.16 1.805 1.16 3.197c0 1.628-.594 2.871-1.785 3.73-1.19.857-2.797 1.273-4.79 1.273-2.113 0-3.959-.356-5.565-1.036l.655-4.086c1.527.636 3.165.968 4.82.977 1.16 0 1.756-.266 1.756-.77.012-.305-.165-.587-.447-.71-.297-.148-1.07-.384-2.32-.71-1.489-.385-2.59-.947-3.304-1.688-.714-.74-1.07-1.747-1.07-3.02 0-1.568.535-2.782 1.606-3.64 1.071-.858 2.559-1.303 4.463-1.303 1.788-.02 3.565.29 5.238.918l-.596 4.085m-96.085 3.048l-5.172 5.77c-.166.177-.461-.055-.4-.288l1.003-4.148h-1.532c-.154 0-.264-.074-.221-.22l1.703-5.58c.025-.098.117-.318.222-.318h3.652c.084 0 .161.044.203.116.042.072.042.16 0 .233l-1.567 3.934h1.936c.173 0 .308.354.173.501zm2.114-5.92c-1.458-1.39-3.392-2.101-5.802-2.101-.557-.008-1.114.022-1.667.089v-5.92l-5.058.236v20.425c1.369.74 3.54 1.125 6.516 1.125 2.5 0 4.494-.74 5.952-2.19 1.458-1.451 2.202-3.434 2.202-5.95l.03-.03c0-2.397-.715-4.292-2.173-5.683" transform="rotate(90 55.384 60.314) rotate(-90 13.555 54.638)"/>
                    </g>
                </g>
            </g>
        </g>
    </g>
</svg>
